<svg xmlns="http://www.w3.org/2000/svg" xmlns:xlink="http://www.w3.org/1999/xlink" contentStyleType="text/css" data-diagram-type="DESCRIPTION" height="474px" preserveAspectRatio="none" style="width:1487px;height:474px;background:#FFFFFF;" version="1.1" viewBox="0 0 1487 474" width="1487px" zoomAndPan="magnify"><title>1. Use Case Diagram - Expense Tracker System</title><defs/><g><g class="title" data-source-line="53"><text fill="#1A1A1A" font-family="Arial" font-size="15" font-weight="bold" lengthAdjust="spacing" textLength="399.3164" x="539.4036" y="28.9233">1. Use Case Diagram - Expense Tracker System</text></g><!--cluster Expense Tracker System--><g class="cluster" data-entity="Expense Tracker System" data-source-line="60" data-uid="ent0004" id="cluster_Expense Tracker System"><rect fill="#FFFFFF" height="309" style="stroke:#444444;stroke-width:1.5;" width="1405" x="12" y="150.4609"/><text fill="#1A1A1A" font-family="Arial" font-size="13" font-weight="bold" lengthAdjust="spacing" textLength="180.0322" x="624.4839" y="164.5278">Expense Tracker System</text></g><!--entity UC_REG--><g class="entity" data-entity="UC_REG" data-source-line="63" data-uid="ent0005" id="entity_UC_REG"><ellipse cx="1361.8167" cy="199.8383" fill="#E8EEFF" rx="38.3167" ry="12.8774" style="stroke:#2255CC;stroke-width:1.5;"/><text fill="#1A1A1A" font-family="Arial" font-size="12" lengthAdjust="spacing" textLength="49.9453" x="1336.844" y="203.3227">Register</text></g><!--entity UC_LOGIN--><g class="entity" data-entity="UC_LOGIN" data-source-line="64" data-uid="ent0006" id="entity_UC_LOGIN"><ellipse cx="1262.0404" cy="199.8383" fill="#E8EEFF" rx="26.0404" ry="12.8774" style="stroke:#2255CC;stroke-width:1.5;"/><text fill="#1A1A1A" font-family="Arial" font-size="12" lengthAdjust="spacing" textLength="32.584" x="1245.7484" y="203.3227">Login</text></g><!--entity UC_ADD--><g class="entity" data-entity="UC_ADD" data-source-line="65" data-uid="ent0007" id="entity_UC_ADD"><ellipse cx="1144.9178" cy="199.9445" fill="#E8EEFF" rx="55.4178" ry="13.4836" style="stroke:#2255CC;stroke-width:1.5;"/><text fill="#1A1A1A" font-family="Arial" font-size="12" lengthAdjust="spacing" textLength="78.1816" x="1105.827" y="203.4289">Add Expense</text></g><!--entity UC_VIEW--><g class="entity" data-entity="UC_VIEW" data-source-line="66" data-uid="ent0008" id="entity_UC_VIEW"><ellipse cx="993.8544" cy="199.8318" fill="#E8EEFF" rx="59.8544" ry="14.3709" style="stroke:#2255CC;stroke-width:1.5;"/><text fill="#1A1A1A" font-family="Arial" font-size="12" lengthAdjust="spacing" textLength="89.7305" x="948.9892" y="203.3162">View Expenses</text></g><!--entity UC_EDIT--><g class="entity" data-entity="UC_EDIT" data-source-line="67" data-uid="ent0009" id="entity_UC_EDIT"><ellipse cx="842.8414" cy="199.9292" fill="#E8EEFF" rx="55.3414" ry="13.4683" style="stroke:#2255CC;stroke-width:1.5;"/><text fill="#1A1A1A" font-family="Arial" font-size="12" lengthAdjust="spacing" textLength="77.9766" x="803.8531" y="203.4136">Edit Expense</text></g><!--entity UC_DEL--><g class="entity" data-entity="UC_DEL" data-source-line="68" data-uid="ent0010" id="entity_UC_DEL"><ellipse cx="691.1204" cy="200.185" fill="#E8EEFF" rx="61.6204" ry="14.7241" style="stroke:#2255CC;stroke-width:1.5;"/><text fill="#1A1A1A" font-family="Arial" font-size="12" lengthAdjust="spacing" textLength="94.166" x="644.0374" y="203.6694">Delete Expense</text></g><!--entity UC_BUD--><g class="entity" data-entity="UC_BUD" data-source-line="69" data-uid="ent0011" id="entity_UC_BUD"><ellipse cx="544.1497" cy="199.8383" fill="#E8EEFF" rx="50.1497" ry="12.8774" style="stroke:#2255CC;stroke-width:1.5;"/><text fill="#1A1A1A" font-family="Arial" font-size="12" lengthAdjust="spacing" textLength="66.6797" x="510.8098" y="203.3227">Set Budget</text></g><!--entity UC_DASH--><g class="entity" data-entity="UC_DASH" data-source-line="70" data-uid="ent0012" id="entity_UC_DASH"><ellipse cx="396.1176" cy="199.9845" fill="#E8EEFF" rx="63.1176" ry="15.0235" style="stroke:#2255CC;stroke-width:1.5;"/><text fill="#1A1A1A" font-family="Arial" font-size="12" lengthAdjust="spacing" textLength="97.8691" x="347.1831" y="203.4688">View Dashboard</text></g><!--entity UC_CSV--><g class="entity" data-entity="UC_CSV" data-source-line="71" data-uid="ent0013" id="entity_UC_CSV"><ellipse cx="247.0888" cy="199.8383" fill="#E8EEFF" rx="50.5888" ry="12.8774" style="stroke:#2255CC;stroke-width:1.5;"/><text fill="#1A1A1A" font-family="Arial" font-size="12" lengthAdjust="spacing" textLength="67.3008" x="213.4384" y="203.3227">Export CSV</text></g><!--entity UC_CHPW--><g class="entity" data-entity="UC_CHPW" data-source-line="72" data-uid="ent0014" id="entity_UC_CHPW"><ellipse cx="95.2042" cy="200.2018" fill="#E8EEFF" rx="66.7042" ry="15.7408" style="stroke:#2255CC;stroke-width:1.5;"/><text fill="#1A1A1A" font-family="Arial" font-size="12" lengthAdjust="spacing" textLength="106.5586" x="41.9249" y="203.6861">Change Password</text></g><!--entity DB--><g class="entity" data-entity="DB" data-source-line="75" data-uid="ent0015" id="entity_DB"><path d="M809.5,301.9609 C809.5,291.9609 848.1289,291.9609 848.1289,291.9609 C848.1289,291.9609 886.7578,291.9609 886.7578,301.9609 L886.7578,324.9297 C886.7578,334.9297 848.1289,334.9297 848.1289,334.9297 C848.1289,334.9297 809.5,334.9297 809.5,324.9297 L809.5,301.9609" fill="#E8EEFF" style="stroke:#000000;stroke-width:1;"/><path d="M809.5,301.9609 C809.5,311.9609 848.1289,311.9609 848.1289,311.9609 C848.1289,311.9609 886.7578,311.9609 886.7578,301.9609" fill="none" style="stroke:#000000;stroke-width:1;"/><text fill="#1A1A1A" font-family="Arial" font-size="12" lengthAdjust="spacing" textLength="57.2578" x="819.5" y="327.0996">Database</text></g><!--entity UC_USERS--><g class="entity" data-entity="UC_USERS" data-source-line="78" data-uid="ent0016" id="entity_UC_USERS"><ellipse cx="1173.9491" cy="427.4508" fill="#FFE0E0" rx="57.9491" ry="13.9898" style="stroke:#2255CC;stroke-width:1.5;"/><text fill="#1A1A1A" font-family="Arial" font-size="12" lengthAdjust="spacing" textLength="84.8496" x="1131.5243" y="430.9351">View All Users</text></g><!--entity UC_ROLE--><g class="entity" data-entity="UC_ROLE" data-source-line="79" data-uid="ent0017" id="entity_UC_ROLE"><ellipse cx="1334.023" cy="427.2655" fill="#FFE0E0" rx="67.023" ry="15.8046" style="stroke:#2255CC;stroke-width:1.5;"/><text fill="#1A1A1A" font-family="Arial" font-size="12" lengthAdjust="spacing" textLength="107.3203" x="1280.3629" y="430.7499">Change User Role</text></g><!--entity UC_DELUSER--><g class="entity" data-entity="UC_DELUSER" data-source-line="80" data-uid="ent0018" id="entity_UC_DELUSER"><ellipse cx="565.1529" cy="427.3915" fill="#FFE0E0" rx="52.6529" ry="12.9306" style="stroke:#2255CC;stroke-width:1.5;"/><text fill="#1A1A1A" font-family="Arial" font-size="12" lengthAdjust="spacing" textLength="70.5938" x="529.856" y="430.8759">Delete User</text></g><!--entity UC_UNLOCK--><g class="entity" data-entity="UC_UNLOCK" data-source-line="81" data-uid="ent0019" id="entity_UC_UNLOCK"><ellipse cx="706.0753" cy="427.476" fill="#FFE0E0" rx="53.0753" ry="13.0151" style="stroke:#2255CC;stroke-width:1.5;"/><text fill="#1A1A1A" font-family="Arial" font-size="12" lengthAdjust="spacing" textLength="71.7773" x="670.1866" y="430.9604">Unlock User</text></g><!--entity UC_AUDIT--><g class="entity" data-entity="UC_AUDIT" data-source-line="82" data-uid="ent0020" id="entity_UC_AUDIT"><ellipse cx="853.7574" cy="427.3124" fill="#FFE0E0" rx="59.7574" ry="14.3515" style="stroke:#2255CC;stroke-width:1.5;"/><text fill="#1A1A1A" font-family="Arial" font-size="12" lengthAdjust="spacing" textLength="89.4844" x="809.0152" y="430.7968">View Audit Log</text></g><!--entity UC_STATS--><g class="entity" data-entity="UC_STATS" data-source-line="83" data-uid="ent0021" id="entity_UC_STATS"><ellipse cx="1015.171" cy="427.5951" fill="#FFE0E0" rx="66.171" ry="15.6342" style="stroke:#2255CC;stroke-width:1.5;"/><text fill="#1A1A1A" font-family="Arial" font-size="12" lengthAdjust="spacing" textLength="105.2813" x="962.5304" y="431.0795">View Global Stats</text></g><!--entity USER--><g class="entity" data-entity="USER" data-source-line="56" data-uid="ent0002" id="entity_USER"><ellipse cx="766.761" cy="57.4609" fill="#FFFFFF" rx="8" ry="8" style="stroke:#2255CC;stroke-width:1;"/><path d="M766.761,65.4609 L766.761,92.4609 M753.761,73.4609 L779.761,73.4609 M766.761,92.4609 L753.761,107.4609 M766.761,92.4609 L779.761,107.4609" fill="none" style="stroke:#2255CC;stroke-width:1;"/><text fill="#1A1A1A" font-family="Arial" font-size="13" font-weight="bold" lengthAdjust="spacing" textLength="33.522" x="750" y="121.5278">User</text></g><!--entity ADMIN--><g class="entity" data-entity="ADMIN" data-source-line="57" data-uid="ent0003" id="entity_ADMIN"><ellipse cx="1456.8118" cy="284.4609" fill="#FFE0E0" rx="8" ry="8" style="stroke:#2255CC;stroke-width:1;"/><path d="M1456.8118,292.4609 L1456.8118,319.4609 M1443.8118,300.4609 L1469.8118,300.4609 M1456.8118,319.4609 L1443.8118,334.4609 M1456.8118,319.4609 L1469.8118,334.4609" fill="none" style="stroke:#2255CC;stroke-width:1;"/><text fill="#1A1A1A" font-family="Arial" font-size="13" font-weight="bold" lengthAdjust="spacing" textLength="46.6235" x="1433.5" y="348.5278">Admin</text></g><!--link USER to UC_REG--><g class="link" data-entity-1="USER" data-entity-2="UC_REG" data-source-line="88" data-uid="lnk22" id="link_USER_UC_REG"><path d="M784.05,87.6709 C864.98,88.8909 1210.31,96.7309 1306,142.4609 C1326.93,152.4609 1341.0133,168.7952 1350.6233,182.1952" fill="none" id="USER-to-UC_REG" style="stroke:#2255CC;stroke-width:1;"/><polygon fill="#2255CC" points="1354.12,187.0709,1352.1254,177.4262,1351.2061,183.0078,1345.6244,182.0885,1354.12,187.0709" style="stroke:#2255CC;stroke-width:1;"/></g><!--link USER to UC_LOGIN--><g class="link" data-entity-1="USER" data-entity-2="UC_LOGIN" data-source-line="89" data-uid="lnk23" id="link_USER_UC_LOGIN"><path d="M784.22,87.8209 C857.33,89.6009 1141.64,99.2209 1218,142.4609 C1236.18,152.7509 1246.6518,168.5581 1253.6318,181.8581" fill="none" id="USER-to-UC_LOGIN" style="stroke:#2255CC;stroke-width:1;"/><polygon fill="#2255CC" points="1256.42,187.1709,1255.7795,177.3429,1254.0965,182.7436,1248.6958,181.0606,1256.42,187.1709" style="stroke:#2255CC;stroke-width:1;"/></g><!--link USER to UC_ADD--><g class="link" data-entity-1="USER" data-entity-2="UC_ADD" data-source-line="90" data-uid="lnk24" id="link_USER_UC_ADD"><path d="M784.02,87.7309 C831.65,89.0609 969.5,96.8709 1072,142.4609 C1096.01,153.1409 1114.9049,169.162 1128.4849,182.282" fill="none" id="USER-to-UC_ADD" style="stroke:#2255CC;stroke-width:1;"/><polygon fill="#2255CC" points="1132.8,186.4509,1129.1066,177.3208,1129.2041,182.9768,1123.5481,183.0743,1132.8,186.4509" style="stroke:#2255CC;stroke-width:1;"/></g><!--link USER to UC_VIEW--><g class="link" data-entity-1="USER" data-entity-2="UC_VIEW" data-source-line="91" data-uid="lnk25" id="link_USER_UC_VIEW"><path d="M784.18,92.1309 C812.6,100.2209 870.75,118.3109 916,142.4609 C939.31,154.9009 958.9199,169.707 974.0699,182.127" fill="none" id="USER-to-UC_VIEW" style="stroke:#2255CC;stroke-width:1;"/><polygon fill="#2255CC" points="978.71,185.9309,974.2859,177.1317,974.8433,182.761,969.214,183.3184,978.71,185.9309" style="stroke:#2255CC;stroke-width:1;"/></g><!--link USER to UC_EDIT--><g class="link" data-entity-1="USER" data-entity-2="UC_EDIT" data-source-line="92" data-uid="lnk26" id="link_USER_UC_EDIT"><path d="M784.06,112.4809 C799.72,135.4709 818.9207,163.6331 831.0807,181.4731" fill="none" id="USER-to-UC_EDIT" style="stroke:#2255CC;stroke-width:1;"/><polygon fill="#2255CC" points="834.46,186.4309,832.6962,176.7413,831.6439,182.2994,826.0858,181.2471,834.46,186.4309" style="stroke:#2255CC;stroke-width:1;"/></g><!--link USER to UC_DEL--><g class="link" data-entity-1="USER" data-entity-2="UC_DEL" data-source-line="93" data-uid="lnk27" id="link_USER_UC_DEL"><path d="M749.94,112.4809 C734.54,135.0809 715.84,162.5236 703.54,180.5636" fill="none" id="USER-to-UC_DEL" style="stroke:#2255CC;stroke-width:1;"/><polygon fill="#2255CC" points="700.16,185.5209,708.5349,180.3382,702.9767,181.3898,701.9251,175.8315,700.16,185.5209" style="stroke:#2255CC;stroke-width:1;"/></g><!--link USER to UC_BUD--><g class="link" data-entity-1="USER" data-entity-2="UC_BUD" data-source-line="94" data-uid="lnk28" id="link_USER_UC_BUD"><path d="M749.88,91.4209 C720.38,98.7009 658.66,115.9209 612,142.4609 C590.12,154.9009 572.6559,170.392 559.8459,182.942" fill="none" id="USER-to-UC_BUD" style="stroke:#2255CC;stroke-width:1;"/><polygon fill="#2255CC" points="555.56,187.1409,564.7882,183.6998,559.1316,183.6418,559.1896,177.9853,555.56,187.1409" style="stroke:#2255CC;stroke-width:1;"/></g><!--link USER to UC_DASH--><g class="link" data-entity-1="USER" data-entity-2="UC_DASH" data-source-line="95" data-uid="lnk29" id="link_USER_UC_DASH"><path d="M749.94,88.2109 C704.04,90.7509 574.78,101.3209 477,142.4609 C451.87,153.0309 431.2935,168.399 415.8335,181.459" fill="none" id="USER-to-UC_DASH" style="stroke:#2255CC;stroke-width:1;"/><polygon fill="#2255CC" points="411.25,185.3309,420.7065,182.5787,415.0696,182.1043,415.5439,176.4674,411.25,185.3309" style="stroke:#2255CC;stroke-width:1;"/></g><!--link USER to UC_CSV--><g class="link" data-entity-1="USER" data-entity-2="UC_CSV" data-source-line="96" data-uid="lnk30" id="link_USER_UC_CSV"><path d="M749.95,88.2509 C677.58,91.8009 395.75,107.6309 315,142.4609 C291.32,152.6709 273.4999,169.3931 261.2499,182.7231" fill="none" id="USER-to-UC_CSV" style="stroke:#2255CC;stroke-width:1;"/><polygon fill="#2255CC" points="257.19,187.1409,266.2251,183.2208,260.5732,183.4594,260.3346,177.8076,257.19,187.1409" style="stroke:#2255CC;stroke-width:1;"/></g><!--link USER to UC_CHPW--><g class="link" data-entity-1="USER" data-entity-2="UC_CHPW" data-source-line="97" data-uid="lnk31" id="link_USER_UC_CHPW"><path d="M749.73,87.9309 C664.5,90.4109 288.36,103.4409 179,142.4609 C152.68,151.8509 131.2369,167.503 115.2869,180.953" fill="none" id="USER-to-UC_CHPW" style="stroke:#2255CC;stroke-width:1;"/><polygon fill="#2255CC" points="110.7,184.8209,120.1589,182.077,114.5224,181.5977,115.0017,175.9612,110.7,184.8209" style="stroke:#2255CC;stroke-width:1;"/></g><!--link UC_REG to DB--><g class="link" data-entity-1="UC_REG" data-entity-2="DB" data-source-line="100" data-uid="lnk32" id="link_UC_REG_DB"><path d="M1333.28,208.6609 C1324.54,210.9309 1314.9,213.3709 1306,215.4609 C1151.32,251.8509 971.6761,288.0673 892.6161,303.6973" fill="none" id="UC_REG-to-DB" style="stroke:#2255CC;stroke-width:1;"/><polygon fill="#2255CC" points="886.73,304.8609,896.3349,307.0395,891.6351,303.8912,894.7833,299.1914,886.73,304.8609" style="stroke:#2255CC;stroke-width:1;"/></g><!--link UC_LOGIN to DB--><g class="link" data-entity-1="UC_LOGIN" data-entity-2="DB" data-source-line="101" data-uid="lnk33" id="link_UC_LOGIN_DB"><path d="M1241.49,208.0109 C1234.11,210.4709 1225.71,213.1809 1218,215.4609 C1097.96,250.9409 959.9201,285.3431 892.4001,301.7631" fill="none" id="UC_LOGIN-to-DB" style="stroke:#2255CC;stroke-width:1;"/><polygon fill="#2255CC" points="886.57,303.1809,896.2603,304.941,891.4284,301.9994,894.3699,297.1675,886.57,303.1809" style="stroke:#2255CC;stroke-width:1;"/></g><!--link UC_ADD to DB--><g class="link" data-entity-1="UC_ADD" data-entity-2="DB" data-source-line="102" data-uid="lnk34" id="link_UC_ADD_DB"><path d="M1116.52,211.6509 C1062.95,231.7609 952.7372,273.1422 892.2172,295.8622" fill="none" id="UC_ADD-to-DB" style="stroke:#2255CC;stroke-width:1;"/><polygon fill="#2255CC" points="886.6,297.9709,896.4317,298.5526,891.281,296.2136,893.62,291.063,886.6,297.9709" style="stroke:#2255CC;stroke-width:1;"/></g><!--link UC_VIEW to DB--><g class="link" data-entity-1="UC_VIEW" data-entity-2="DB" data-source-line="103" data-uid="lnk35" id="link_UC_VIEW_DB"><path d="M976.97,213.9709 C951.92,233.1009 909.6687,265.3696 879.8487,288.1396" fill="none" id="UC_VIEW-to-DB" style="stroke:#2255CC;stroke-width:1;"/><polygon fill="#2255CC" points="875.08,291.7809,884.6606,289.4981,879.0539,288.7465,879.8056,283.1398,875.08,291.7809" style="stroke:#2255CC;stroke-width:1;"/></g><!--link UC_EDIT to DB--><g class="link" data-entity-1="UC_EDIT" data-entity-2="DB" data-source-line="104" data-uid="lnk36" id="link_UC_EDIT_DB"><path d="M843.57,213.7509 C844.43,232.8609 845.7798,263.047 846.8098,285.897" fill="none" id="UC_EDIT-to-DB" style="stroke:#2255CC;stroke-width:1;"/><polygon fill="#2255CC" points="847.08,291.8909,850.6707,282.7199,846.8548,286.896,842.6788,283.0802,847.08,291.8909" style="stroke:#2255CC;stroke-width:1;"/></g><!--link UC_DEL to DB--><g class="link" data-entity-1="UC_DEL" data-entity-2="DB" data-source-line="105" data-uid="lnk37" id="link_UC_DEL_DB"><path d="M709.32,213.9709 C736.25,233.1009 781.9282,265.5367 813.9882,288.3067" fill="none" id="UC_DEL-to-DB" style="stroke:#2255CC;stroke-width:1;"/><polygon fill="#2255CC" points="818.88,291.7809,813.8585,283.3083,814.8035,288.8857,809.2262,289.8307,818.88,291.7809" style="stroke:#2255CC;stroke-width:1;"/></g><!--link UC_BUD to DB--><g class="link" data-entity-1="UC_BUD" data-entity-2="DB" data-source-line="106" data-uid="lnk38" id="link_UC_BUD_DB"><path d="M571.25,210.9509 C625.46,230.8409 741.3569,273.3449 803.7669,296.2349" fill="none" id="UC_BUD-to-DB" style="stroke:#2255CC;stroke-width:1;"/><polygon fill="#2255CC" points="809.4,298.3009,802.3277,291.4465,804.7058,296.5792,799.573,298.9573,809.4,298.3009" style="stroke:#2255CC;stroke-width:1;"/></g><!--link UC_DASH to DB--><g class="link" data-entity-1="UC_DASH" data-entity-2="DB" data-source-line="107" data-uid="lnk39" id="link_UC_DASH_DB"><path d="M437.71,211.2509 C524.8,232.7309 719.0445,280.6542 803.4645,301.4742" fill="none" id="UC_DASH-to-DB" style="stroke:#2255CC;stroke-width:1;"/><polygon fill="#2255CC" points="809.29,302.9109,801.5096,296.8723,804.4355,301.7137,799.594,304.6395,809.29,302.9109" style="stroke:#2255CC;stroke-width:1;"/></g><!--link UC_CSV to DB--><g class="link" data-entity-1="UC_CSV" data-entity-2="DB" data-source-line="108" data-uid="lnk40" id="link_UC_CSV_DB"><path d="M283.66,208.9909 C293.8,211.1509 304.82,213.4509 315,215.4609 C499.77,251.9609 715.6973,289.6914 803.5573,304.8414" fill="none" id="UC_CSV-to-DB" style="stroke:#2255CC;stroke-width:1;"/><polygon fill="#2255CC" points="809.47,305.8609,801.2806,300.3898,804.5427,305.0113,799.9212,308.2734,809.47,305.8609" style="stroke:#2255CC;stroke-width:1;"/></g><!--link UC_CHPW to DB--><g class="link" data-entity-1="UC_CHPW" data-entity-2="DB" data-source-line="109" data-uid="lnk41" id="link_UC_CHPW_DB"><path d="M146.05,210.0009 C156.92,211.8609 168.33,213.7709 179,215.4609 C418.35,253.4609 700.9149,292.461 803.5349,306.441" fill="none" id="UC_CHPW-to-DB" style="stroke:#2255CC;stroke-width:1;"/><polygon fill="#2255CC" points="809.48,307.2509,801.1023,302.0727,804.5258,306.576,800.0224,309.9995,809.48,307.2509" style="stroke:#2255CC;stroke-width:1;"/></g><!--link DB to UC_USERS--><g class="link" data-entity-1="DB" data-entity-2="UC_USERS" data-source-line="112" data-uid="lnk42" id="link_DB_UC_USERS"><path d="M886.68,327.7509 C951.78,350.1109 1076.3556,392.9113 1136.5156,413.5813" fill="none" id="DB-to-UC_USERS" style="stroke:#2255CC;stroke-width:1;"/><polygon fill="#2255CC" points="1142.19,415.5309,1134.9781,408.8235,1137.4613,413.9062,1132.3786,416.3894,1142.19,415.5309" style="stroke:#2255CC;stroke-width:1;"/></g><!--link DB to UC_ROLE--><g class="link" data-entity-1="DB" data-entity-2="UC_ROLE" data-source-line="113" data-uid="lnk43" id="link_DB_UC_ROLE"><path d="M886.54,323.3409 C975,343.7309 1186.4433,392.4535 1281.9033,414.4535" fill="none" id="DB-to-UC_ROLE" style="stroke:#2255CC;stroke-width:1;"/><polygon fill="#2255CC" points="1287.75,415.8009,1279.8782,409.8819,1282.8777,414.6781,1278.0816,417.6776,1287.75,415.8009" style="stroke:#2255CC;stroke-width:1;"/></g><!--link DB to UC_DELUSER--><g class="link" data-entity-1="DB" data-entity-2="UC_DELUSER" data-source-line="114" data-uid="lnk44" id="link_DB_UC_DELUSER"><path d="M809.24,329.8009 C750.66,352.9809 646.6791,394.1332 596.6691,413.9232" fill="none" id="DB-to-UC_DELUSER" style="stroke:#2255CC;stroke-width:1;"/><polygon fill="#2255CC" points="591.09,416.1309,600.9304,416.5387,595.7392,414.2911,597.9867,409.0999,591.09,416.1309" style="stroke:#2255CC;stroke-width:1;"/></g><!--link DB to UC_UNLOCK--><g class="link" data-entity-1="DB" data-entity-2="UC_UNLOCK" data-source-line="115" data-uid="lnk45" id="link_DB_UC_UNLOCK"><path d="M821.96,335.0009 C792.17,358.4909 749.1609,392.4151 725.3009,411.2351" fill="none" id="DB-to-UC_UNLOCK" style="stroke:#2255CC;stroke-width:1;"/><polygon fill="#2255CC" points="720.59,414.9509,730.1336,412.5178,724.5158,411.8544,725.1792,406.2366,720.59,414.9509" style="stroke:#2255CC;stroke-width:1;"/></g><!--link DB to UC_AUDIT--><g class="link" data-entity-1="DB" data-entity-2="UC_AUDIT" data-source-line="116" data-uid="lnk46" id="link_DB_UC_AUDIT"><path d="M849.1,335.0009 C850.31,357.6109 851.8962,387.3297 852.9462,406.7597" fill="none" id="DB-to-UC_AUDIT" style="stroke:#2255CC;stroke-width:1;"/><polygon fill="#2255CC" points="853.27,412.7509,856.7785,403.5482,853.0002,407.7582,848.7902,403.9799,853.27,412.7509" style="stroke:#2255CC;stroke-width:1;"/></g><!--link DB to UC_STATS--><g class="link" data-entity-1="DB" data-entity-2="UC_STATS" data-source-line="117" data-uid="lnk47" id="link_DB_UC_STATS"><path d="M878.63,335.0009 C912.15,357.4809 960.0067,389.5793 989.0867,409.0793" fill="none" id="DB-to-UC_STATS" style="stroke:#2255CC;stroke-width:1;"/><polygon fill="#2255CC" points="994.07,412.4209,988.8228,404.0863,989.9172,409.6362,984.3673,410.7307,994.07,412.4209" style="stroke:#2255CC;stroke-width:1;"/></g><!--link ADMIN to UC_USERS--><g class="link" data-entity-1="ADMIN" data-entity-2="UC_USERS" data-source-line="120" data-uid="lnk48" id="link_ADMIN_UC_USERS"><path d="M1433.42,339.4409 C1428.33,343.8909 1422.74,348.1509 1417,351.4609 C1381.81,371.7509 1277.4816,400.129 1218.3116,415.319" fill="none" id="ADMIN-to-UC_USERS" style="stroke:#2255CC;stroke-width:1;"/><polygon fill="#2255CC" points="1212.5,416.8109,1222.2119,418.4474,1217.343,415.5677,1220.2227,410.6987,1212.5,416.8109" style="stroke:#2255CC;stroke-width:1;"/></g><!--link ADMIN to UC_ROLE--><g class="link" data-entity-1="ADMIN" data-entity-2="UC_ROLE" data-source-line="121" data-uid="lnk49" id="link_ADMIN_UC_ROLE"><path d="M1433.35,336.4209 C1427.99,341.3809 1422.31,346.6109 1417,351.4609 C1393.92,372.5609 1371.5015,392.7691 1354.7315,407.8491" fill="none" id="ADMIN-to-UC_ROLE" style="stroke:#2255CC;stroke-width:1;"/><polygon fill="#2255CC" points="1350.27,411.8609,1359.6368,408.8174,1353.9879,408.5177,1354.2876,402.8688,1350.27,411.8609" style="stroke:#2255CC;stroke-width:1;"/></g><!--link ADMIN to UC_DELUSER--><g class="link" data-entity-1="ADMIN" data-entity-2="UC_DELUSER" data-source-line="122" data-uid="lnk50" id="link_ADMIN_UC_DELUSER"><path d="M1433.06,341.2209 C1428.15,345.2909 1422.72,348.9609 1417,351.4609 C1257.47,421.0909 808.3,386.7509 636,411.4609 C624.53,413.1109 617.9961,414.2505 606.8261,416.6505" fill="none" id="ADMIN-to-UC_DELUSER" style="stroke:#2255CC;stroke-width:1;"/><polygon fill="#2255CC" points="600.96,417.9109,610.5995,419.9311,605.8484,416.8606,608.9189,412.1096,600.96,417.9109" style="stroke:#2255CC;stroke-width:1;"/></g><!--link ADMIN to UC_UNLOCK--><g class="link" data-entity-1="ADMIN" data-entity-2="UC_UNLOCK" data-source-line="123" data-uid="lnk51" id="link_ADMIN_UC_UNLOCK"><path d="M1433.47,340.7709 C1428.45,345.0009 1422.87,348.8409 1417,351.4609 C1156.13,467.9509 1059.45,368.5309 777,411.4609 C765.67,413.1809 759.2873,414.3259 748.2073,416.6959" fill="none" id="ADMIN-to-UC_UNLOCK" style="stroke:#2255CC;stroke-width:1;"/><polygon fill="#2255CC" points="742.34,417.9509,751.9776,419.9799,747.2294,416.9051,750.3042,412.1569,742.34,417.9509" style="stroke:#2255CC;stroke-width:1;"/></g><!--link ADMIN to UC_AUDIT--><g class="link" data-entity-1="ADMIN" data-entity-2="UC_AUDIT" data-source-line="124" data-uid="lnk52" id="link_ADMIN_UC_AUDIT"><path d="M1433.41,340.6309 C1428.39,344.8709 1422.83,348.7509 1417,351.4609 C1220.01,442.9409 1146.54,377.6009 932,411.4609 C920.97,413.2009 915.0027,414.2114 903.9427,416.3314" fill="none" id="ADMIN-to-UC_AUDIT" style="stroke:#2255CC;stroke-width:1;"/><polygon fill="#2255CC" points="898.05,417.4609,907.6421,419.6951,902.9606,416.5197,906.1361,411.8382,898.05,417.4609" style="stroke:#2255CC;stroke-width:1;"/></g><!--link ADMIN to UC_STATS--><g class="link" data-entity-1="ADMIN" data-entity-2="UC_STATS" data-source-line="125" data-uid="lnk53" id="link_ADMIN_UC_STATS"><path d="M1433.27,340.3409 C1428.27,344.6109 1422.75,348.5709 1417,351.4609 C1409.13,355.4109 1177.6755,397.2702 1071.4455,416.3502" fill="none" id="ADMIN-to-UC_STATS" style="stroke:#2255CC;stroke-width:1;"/><polygon fill="#2255CC" points="1065.54,417.4109,1075.1054,419.7569,1070.4613,416.527,1073.6911,411.8829,1065.54,417.4109" style="stroke:#2255CC;stroke-width:1;"/></g><!--SRC=[rLRTRjem5BxFKtZPnRgBLi26jAj9-UkFHg4YeLEl9fEu465Yv1ZHRfgqgpt0j2Viayn_8NQRK6cQ2aiHgh_u-9ppdNC-yuhDqHA15OPvuPIBl5X12fTW2jF5Z99raGK44mhKy_fKFiQ-3Dt2DMQdf613oC_HZqTpY9ktnVdNxRPkhtcFvRFhYJzZOpc76TdanGnOpot49JAsoUXJGWj4pMqTnzZ3SeOH-EQ85xRZoctrfWwxswz1TeyLEYKuSxwRHyEKyQFKqVuZDYiUvJj2CqGDnxrUlny43I7j2eg7zQuXhAR0rYLAOObUChIUSLmopzD5WSeIT4_wTcGfMQv8WGhsih7PPQEKRBJ_vqv_ZAfpkntxH8fI1eiP_Yl6tykdbRv_t2Hg7BedOCBx8n1D4kPm9f8u1j7T2XKSIIYFduzKV5yoj7ISD-3Xzm_-0LwGZCQnNlrV7qSDgylJfYu0i0IJE1fNg9Sjyy8Lg1TUNWn5mQ9Er35IZs_Y9Be4_cWo3BtnpU5ouDJDw3ONrELTAdjacvoWGdo1m8kZ61nDyHgztMUAChnAnTmnckKyS54t_OZo1L_6qPcUX-X35EdvsbeDo4pKr7YKrM1qnYlSPkLbMJK7hcdbXU4ENzSvsbHcfLjRNLz4dzkjeYndjZDb5OKNIRjLY31YoBHJLc4qs15XZ1ZmrzaCCTTYmvyycrS8o_cKG9ePlhpuV4TUToj26GZYQziN1tRu2kQyQn6uWcMv8TAPjZg_iZcqUpVq4i_dRGkEKdwjqFtshTt06MHmgcgc_vCI4_ejgIZjCUQGecn_wJHqWeUnk3TeMNU2a8vO_t2KajbKKs43nWIh_CNaZWOHQBNI7Qwb6fWTBfMgsMfIO98kdbfDXeDHyAdDbyfhBIQH2qQTbpVHGzXkTOR9568GCyZAAh4uyPBOi19NhYsp3pz_6IK-n0j4Xdby_55BhBMMucaXN1YjjP0y2n1gPW6yZDQQIv3zdekB1N3TiDTS4MnQApOvjrizE1WwjnUL23_qdVeEgW5zlTI0lZbgG5yADQ3rlWQqb1ixb4hNW1PW0r3QgW7dgQWAHX_BqdvevAgfooybnrWBCJ6MMYLC0wa01Y27srZBgJL_vygC3oRtcWGLZiM31KagBAHYmxPKX5YOuiI292r_0000]--></g></svg>